<svg width="50" height="50" viewBox="0 0 50 50" fill="none" xmlns="http://www.w3.org/2000/svg">
<path d="M24.8908 43.9906C24.2346 45.6156 22.4064 47.3656 20.0596 46.7125C18.2158 46.2 17.0189 45.0875 16.3314 43.6C15.6939 42.2156 15.5377 40.5844 15.5064 39.0313C15.4752 37.3594 15.8252 35.3563 16.2346 33.6C16.4174 32.824 16.6206 32.0529 16.844 31.2875H12.5158C11.5448 31.2875 10.587 31.0611 9.71868 30.6265C8.85032 30.1918 8.09518 29.5608 7.51316 28.7835C6.93115 28.0061 6.53828 27.1039 6.3657 26.1482C6.19312 25.1926 6.24559 24.2099 6.51895 23.2781L10.7814 8.75939C11.0739 7.76307 11.562 6.83505 12.2173 6.02956C12.8725 5.22408 13.6818 4.5573 14.5977 4.0682C15.5136 3.57909 16.5179 3.27748 17.5518 3.181C18.5856 3.08451 19.6283 3.19509 20.6189 3.50626L37.3564 8.76251C38.2619 9.04693 39.0907 9.53384 39.78 10.1863C40.4693 10.8387 41.0009 11.6396 41.3346 12.5281L42.9596 16.8531C43.4767 18.2296 43.492 19.7443 43.0028 21.1309C42.5135 22.5175 41.551 23.6873 40.2846 24.4344L34.4346 27.8844C33.8451 28.3506 33.2981 28.8683 32.8002 29.4313C31.7252 30.6469 30.2471 32.6688 28.7627 35.8219C28.1221 37.1844 27.5846 38.2563 27.0971 39.2281C26.3064 40.8 25.644 42.1156 24.8908 43.9906ZM32.7533 25.25C32.7708 25.2393 32.7885 25.2288 32.8064 25.2188L38.6971 21.7438C39.3303 21.3702 39.8115 20.7853 40.0562 20.092C40.3008 19.3987 40.2931 18.6414 40.0346 17.9531L38.4096 13.6281C38.2428 13.1834 37.9768 12.7826 37.6319 12.456C37.287 12.1295 36.8721 11.8859 36.4189 11.7438L19.6877 6.48751C19.0932 6.3002 18.4673 6.23333 17.8467 6.29081C17.226 6.3483 16.6231 6.52899 16.0731 6.82231C15.5232 7.11562 15.0372 7.51568 14.6437 7.99907C14.2502 8.48246 13.9571 9.03947 13.7814 9.63751L9.52208 24.1563C9.38507 24.6224 9.35863 25.114 9.44486 25.5922C9.5311 26.0703 9.72762 26.5217 10.0188 26.9106C10.3101 27.2995 10.6879 27.6152 11.1225 27.8325C11.557 28.0498 12.0362 28.1628 12.5221 28.1625H18.9783C19.2283 28.1627 19.4746 28.2228 19.6966 28.3378C19.9185 28.4529 20.1096 28.6195 20.2538 28.8237C20.398 29.0279 20.4911 29.2637 20.5253 29.5114C20.5594 29.759 20.5337 30.0113 20.4502 30.2469C20.1377 31.1281 19.6627 32.6563 19.2752 34.3156C18.8815 35.9969 18.6033 37.6969 18.6283 38.9719C18.6596 40.4344 18.8127 41.5219 19.1689 42.2906C19.4752 42.9625 19.9533 43.4406 20.8939 43.7031C21.0283 43.7406 21.1877 43.7281 21.3939 43.5938C21.6632 43.4015 21.8697 43.1341 21.9877 42.825C22.7075 41.0706 23.5052 39.3491 24.3783 37.6656C24.8627 36.7 25.3721 35.6844 25.9314 34.4938C27.5377 31.075 29.1814 28.8 30.4627 27.3594C31.1002 26.6406 31.644 26.1313 32.044 25.7906C32.2471 25.618 32.4577 25.4543 32.6752 25.3L32.7252 25.2688L32.7408 25.2563L32.7533 25.25Z" fill="#FF5151"/>
</svg>
