<svg width="32" height="32" viewBox="0 0 32 32" fill="none" xmlns="http://www.w3.org/2000/svg">
<path d="M15.93 28.1539C15.51 29.1939 14.34 30.3139 12.838 29.8959C11.658 29.5679 10.892 28.8559 10.452 27.9039C10.0439 27.0179 9.94395 25.9739 9.92395 24.9799C9.90395 23.9099 10.128 22.6279 10.3899 21.5039C10.5069 21.0073 10.637 20.5138 10.78 20.0239H8.00995C7.38846 20.0239 6.77553 19.8791 6.21978 19.6009C5.66402 19.3227 5.18073 18.9188 4.80825 18.4213C4.43576 17.9239 4.18432 17.3464 4.07387 16.7348C3.96342 16.1232 3.997 15.4943 4.17195 14.8979L6.89995 5.60594C7.08711 4.9683 7.39951 4.37436 7.81887 3.85885C8.23824 3.34335 8.75616 2.9166 9.34236 2.60358C9.92856 2.29055 10.5713 2.09752 11.2329 2.03577C11.8946 1.97402 12.562 2.04479 13.196 2.24394L23.908 5.60794C24.4875 5.78997 25.0179 6.10159 25.459 6.51916C25.9002 6.93673 26.2404 7.44929 26.454 8.01794L27.494 10.7859C27.8249 11.6669 27.8347 12.6363 27.5216 13.5237C27.2085 14.4112 26.5925 15.1598 25.782 15.6379L22.038 17.8459C21.6607 18.1443 21.3106 18.4756 20.992 18.8359C20.304 19.6139 19.358 20.9079 18.408 22.9259C17.998 23.7979 17.654 24.4839 17.342 25.1059C16.836 26.1119 16.412 26.9539 15.93 28.1539ZM20.962 16.1599C20.9732 16.1531 20.9845 16.1464 20.996 16.1399L24.766 13.9159C25.1712 13.6769 25.4792 13.3026 25.6358 12.8588C25.7923 12.4151 25.7874 11.9304 25.622 11.4899L24.582 8.72194C24.4752 8.43732 24.305 8.18078 24.0842 7.97181C23.8635 7.76283 23.598 7.60693 23.308 7.51594L12.6 4.15194C12.2195 4.03206 11.8189 3.98926 11.4217 4.02605C11.0245 4.06285 10.6386 4.17849 10.2866 4.36621C9.93464 4.55393 9.62364 4.80997 9.3718 5.11934C9.11996 5.42871 8.93235 5.78519 8.81995 6.16794L6.09395 15.4599C6.00627 15.7583 5.98935 16.0729 6.04453 16.3789C6.09972 16.6849 6.2255 16.9739 6.41188 17.2227C6.59826 17.4716 6.8401 17.6736 7.11821 17.8127C7.39631 17.9518 7.70301 18.0241 8.01395 18.0239H12.146C12.3059 18.024 12.4636 18.0625 12.6056 18.1361C12.7477 18.2098 12.87 18.3164 12.9622 18.4471C13.0545 18.5778 13.1141 18.7287 13.136 18.8872C13.1579 19.0457 13.1414 19.2071 13.088 19.3579C12.888 19.9219 12.584 20.8999 12.336 21.9619C12.084 23.0379 11.906 24.1259 11.922 24.9419C11.942 25.8779 12.04 26.5739 12.268 27.0659C12.464 27.4959 12.77 27.8019 13.372 27.9699C13.458 27.9939 13.56 27.9859 13.692 27.8999C13.8643 27.7769 13.9965 27.6058 14.072 27.4079C14.5326 26.2851 15.0432 25.1833 15.602 24.1059C15.912 23.4879 16.238 22.8379 16.596 22.0759C17.624 19.8879 18.676 18.4319 19.496 17.5099C19.904 17.0499 20.252 16.7239 20.508 16.5059C20.638 16.3954 20.7728 16.2907 20.912 16.1919L20.944 16.1719L20.954 16.1639L20.962 16.1599Z" fill="#FF5151"/>
</svg>
