<svg width="26" height="26" viewBox="0 0 26 26" fill="none" xmlns="http://www.w3.org/2000/svg">
<rect x="0.5" y="0.5" width="25" height="25" rx="5.5" fill="white"/>
<path d="M12.458 8C13.8953 8 15.0807 8.462 16.014 9.386C16.9567 10.31 17.428 11.4813 17.428 12.9C17.428 14.3187 16.9567 15.49 16.014 16.414C15.0807 17.338 13.8953 17.8 12.458 17.8H9V8H12.458ZM12.416 16.302C13.396 16.302 14.1987 15.9847 14.824 15.35C15.4587 14.706 15.776 13.8893 15.776 12.9C15.776 12.4053 15.692 11.948 15.524 11.528C15.3653 11.108 15.1367 10.7487 14.838 10.45C14.5487 10.1513 14.194 9.918 13.774 9.75C13.354 9.582 12.9013 9.498 12.416 9.498H10.61V16.302H12.416Z" fill="#222222"/>
<rect x="0.5" y="0.5" width="25" height="25" rx="5.5" stroke="#D3D3D3"/>
</svg>
