<svg width="32" height="32" viewBox="0 0 32 32" fill="none" xmlns="http://www.w3.org/2000/svg">
<path d="M16.07 3.84593C16.49 2.80593 17.66 1.68593 19.162 2.10393C20.342 2.43193 21.108 3.14393 21.548 4.09593C21.956 4.98193 22.056 6.02593 22.076 7.01993C22.096 8.08993 21.872 9.37193 21.61 10.4959C21.4931 10.9926 21.363 11.4861 21.22 11.9759H23.99C24.6115 11.976 25.2245 12.1208 25.7802 12.399C26.336 12.6772 26.8193 13.081 27.1918 13.5785C27.5642 14.076 27.8157 14.6535 27.9261 15.2651C28.0366 15.8767 28.003 16.5056 27.828 17.1019L25.1 26.3939C24.9129 27.0316 24.6005 27.6255 24.1811 28.141C23.7618 28.6565 23.2438 29.0833 22.6576 29.3963C22.0714 29.7093 21.4287 29.9024 20.7671 29.9641C20.1054 30.0259 19.438 29.9551 18.804 29.7559L8.09205 26.3919C7.51254 26.2099 6.9821 25.8983 6.54096 25.4807C6.09983 25.0631 5.75958 24.5506 5.54605 23.9819L4.50605 21.2139C4.17507 20.333 4.16529 19.3636 4.47841 18.4761C4.79154 17.5887 5.40752 16.8401 6.21805 16.3619L9.96205 14.1539C10.3393 13.8555 10.6894 13.5242 11.008 13.1639C11.696 12.3859 12.642 11.0919 13.592 9.07393C14.002 8.20193 14.346 7.51593 14.658 6.89393C15.164 5.88793 15.588 5.04593 16.07 3.84593ZM11.038 15.8399C11.0268 15.8468 11.0155 15.8535 11.004 15.8599L7.23405 18.0839C6.82879 18.323 6.52079 18.6973 6.36423 19.141C6.20767 19.5848 6.21256 20.0695 6.37805 20.5099L7.41805 23.2779C7.52479 23.5626 7.69501 23.8191 7.91576 24.0281C8.13652 24.237 8.40201 24.3929 8.69205 24.4839L19.4 27.8479C19.7805 27.9678 20.1811 28.0106 20.5783 27.9738C20.9755 27.937 21.3614 27.8214 21.7134 27.6337C22.0654 27.4459 22.3764 27.1899 22.6282 26.8805C22.88 26.5712 23.0676 26.2147 23.18 25.8319L25.906 16.5399C25.9937 16.2416 26.0107 15.927 25.9555 15.621C25.9003 15.3149 25.7745 15.026 25.5881 14.7771C25.4017 14.5282 25.1599 14.3262 24.8818 14.1872C24.6037 14.0481 24.297 13.9758 23.986 13.9759H19.854C19.6941 13.9758 19.5364 13.9374 19.3944 13.8637C19.2523 13.7901 19.13 13.6835 19.0378 13.5528C18.9455 13.4221 18.8859 13.2711 18.864 13.1127C18.8421 12.9542 18.8586 12.7927 18.912 12.6419C19.112 12.0779 19.416 11.0999 19.664 10.0379C19.916 8.96193 20.094 7.87393 20.078 7.05793C20.058 6.12193 19.96 5.42593 19.732 4.93393C19.536 4.50393 19.23 4.19793 18.628 4.02993C18.542 4.00593 18.44 4.01393 18.308 4.09993C18.1357 4.22297 18.0035 4.39412 17.928 4.59193C17.4674 5.71478 16.9568 6.81654 16.398 7.89393C16.088 8.51193 15.762 9.16193 15.404 9.92393C14.376 12.1119 13.324 13.5679 12.504 14.4899C12.096 14.9499 11.748 15.2759 11.492 15.4939C11.362 15.6044 11.2272 15.7092 11.088 15.8079L11.056 15.8279L11.046 15.8359L11.038 15.8399Z" fill="#73C66E"/>
</svg>
