<svg width="50" height="50" viewBox="0 0 50 50" fill="none" xmlns="http://www.w3.org/2000/svg">
<path d="M25.1092 6.00936C25.7654 4.38436 27.5936 2.63436 29.9404 3.28749C31.7842 3.79999 32.9811 4.91249 33.6686 6.39999C34.3061 7.78436 34.4623 9.41561 34.4936 10.9687C34.5248 12.6406 34.1748 14.6437 33.7654 16.4C33.5826 17.176 33.3794 17.9471 33.156 18.7125H37.4842C38.4552 18.7125 39.413 18.9389 40.2813 19.3735C41.1497 19.8082 41.9048 20.4392 42.4868 21.2165C43.0689 21.9939 43.4617 22.8961 43.6343 23.8518C43.8069 24.8074 43.7544 25.7901 43.481 26.7219L39.2186 41.2406C38.9261 42.2369 38.438 43.165 37.7827 43.9704C37.1275 44.7759 36.3182 45.4427 35.4023 45.9318C34.4864 46.4209 33.4821 46.7225 32.4482 46.819C31.4144 46.9155 30.3717 46.8049 29.3811 46.4937L12.6436 41.2375C11.7381 40.9531 10.9093 40.4662 10.22 39.8137C9.5307 39.1613 8.99908 38.3604 8.66543 37.4719L7.04043 33.1469C6.52328 31.7704 6.50799 30.2557 6.99724 28.8691C7.4865 27.4825 8.44898 26.3127 9.71543 25.5656L15.5654 22.1156C16.1549 21.6494 16.7019 21.1317 17.1998 20.5687C18.2748 19.3531 19.7529 17.3312 21.2373 14.1781C21.8779 12.8156 22.4154 11.7437 22.9029 10.7719C23.6936 9.19999 24.356 7.88436 25.1092 6.00936ZM17.2467 24.75C17.2292 24.7607 17.2115 24.7712 17.1936 24.7812L11.3029 28.2562C10.6697 28.6298 10.1885 29.2147 9.94384 29.908C9.69921 30.6013 9.70685 31.3586 9.96543 32.0469L11.5904 36.3719C11.7572 36.8166 12.0232 37.2174 12.3681 37.544C12.713 37.8705 13.1279 38.1141 13.5811 38.2562L30.3123 43.5125C30.9068 43.6998 31.5327 43.7667 32.1533 43.7092C32.774 43.6517 33.3769 43.471 33.9269 43.1777C34.4768 42.8844 34.9628 42.4843 35.3563 42.0009C35.7498 41.5175 36.0429 40.9605 36.2186 40.3625L40.4779 25.8437C40.6149 25.3776 40.6414 24.886 40.5551 24.4078C40.4689 23.9297 40.2724 23.4783 39.9812 23.0894C39.6899 22.7005 39.3121 22.3848 38.8775 22.1675C38.443 21.9502 37.9638 21.8372 37.4779 21.8375H31.0217C30.7717 21.8373 30.5254 21.7772 30.3034 21.6622C30.0815 21.5471 29.8904 21.3805 29.7462 21.1763C29.602 20.9721 29.5089 20.7363 29.4747 20.4886C29.4406 20.241 29.4663 19.9887 29.5498 19.7531C29.8623 18.8719 30.3373 17.3437 30.7248 15.6844C31.1185 14.0031 31.3967 12.3031 31.3717 11.0281C31.3404 9.56561 31.1873 8.47811 30.8311 7.70936C30.5248 7.03749 30.0467 6.55936 29.1061 6.29686C28.9717 6.25936 28.8123 6.27186 28.6061 6.40624C28.3368 6.59849 28.1303 6.8659 28.0123 7.17499C27.2925 8.92944 26.4948 10.6509 25.6217 12.3344C25.1373 13.3 24.6279 14.3156 24.0686 15.5062C22.4623 18.925 20.8186 21.2 19.5373 22.6406C18.8998 23.3594 18.356 23.8687 17.956 24.2094C17.7529 24.382 17.5423 24.5457 17.3248 24.7L17.2748 24.7312L17.2592 24.7437L17.2467 24.75Z" fill="#73C66E"/>
</svg>
